<svg xmlns="http://www.w3.org/2000/svg" viewBox="104.8 231 1442.8 470.4" role="img" aria-labelledby="t"><title id="t">Davis Landworks LLC</title><path fill="#F4EFE6" fill-rule="evenodd" d="M401.3 480.2H188.6V337.7H246.7V431.4H381.5L394.9 419.1V318.9L381.5 306.2H216.6L175.4 258.7H407.5L450.2 300.8V436.4ZM762.4 480.2L662.7 320.4L559.2 480.2H489.7L633.1 258.7H697.1L837.4 480.2ZM1127.8 258.7V480.2H1189.4V258.7ZM1444.5 480.2H1223.7L1267.4 432.8H1417L1427.6 423V402.2L1418.2 393.3H1273.2L1231.6 362.3V296.6L1273.7 258.7H1483.4L1443.3 306.2H1296.3L1286.2 315.6V339.2L1296.1 347.8H1442.5L1481.9 380.5V443.4ZM965.2 480.2H896.1L764.4 258.7H835.4L931.3 424.7L1027.4 258.7H1094.7Z"/><path fill="#AA7B3C" fill-rule="evenodd" d="M694.1 400.3H636.1L583.4 480.2H641ZM329.7 528.2V593.8H376.7V579.3H345.8V528.2ZM561.7 528.2V593.8H577.3V555.1L603.8 593.8H619.6V528.2H603.6V565.1L577.9 528.2ZM686.4 528.2V593.8H731.2L741.1 583.9V538L731.3 528.2ZM721.7 542.3L724.8 545.4V576.3L721.6 579.5H702.6V542.3ZM812 593.8H829L839.1 555.5L849.2 593.8H866L884.3 528.2H866.9L857.3 569.2L846.9 528.2H832.2L821.2 569L812.8 528.2H795.9ZM945.2 528.2L935.4 538V584L945.2 593.8H980.9L990.7 584V537.6L981.3 528.2ZM971.9 542.3L974.6 545V577L972.1 579.5H954.1L951.6 577V545.4L954.7 542.3ZM1055.2 528.2V593.8H1071.2V571.8H1081.1L1093.6 593.8H1113.4L1098.7 571.1L1108.2 561.6V537.8L1098.6 528.2ZM1091.7 544.7V555L1089.1 557.6H1071.2V542.3H1089.3ZM1165.7 528.2V593.8H1181.8V576.1L1190 567.9L1204.9 593.8H1224.5L1200.5 554.6L1223.5 528.2H1202.7L1181.8 553.9V528.2ZM1279.7 528.2L1270.2 537.7V557.5L1279 564.3L1305 569.3L1306.6 570.9V578.2L1304.5 580.3H1288.1L1285.6 577.8V572.5H1270.2V584.4L1279.6 593.8H1313L1322.7 584.1V564.5L1314.9 556.7L1288.5 551.8L1286.3 549.6V544.3L1288.9 541.7H1304L1306.6 544.3V549.3H1322.4V538.2L1312.4 528.2ZM457.6 528.2L432.6 593.8H449.8L454.4 580.8H479.1L483.5 593.8H501L476.7 528.2ZM474.3 567.5H458.9L467 545.4ZM1379.4 558.8H1519.9V569.7H1379.4ZM132.5 558.8H273V569.7H132.5ZM739.4 627.7V673.7H773.7V663.3H751.8V627.7ZM806.7 627.7V673.7H840.3V663.3H818.9V627.7ZM880 627.7L872.6 635.1V666.6L879.7 673.7H905.1L912.2 666.6V656.3H900.2V661.6L898.2 663.6H886.7L884.7 661.6V639.9L886.7 637.9H897.8L900.2 640.3V644.7H912.2V635.4L904.5 627.7ZM519.7 648.3H696.6V654.8H519.7ZM955 648.3H1131.9V654.8H955Z"/></svg>
